<?xml version="1.0" standalone="no"?>
<!DOCTYPE svg PUBLIC "-//W3C//DTD SVG 20010904//EN"
 "http://www.w3.org/TR/2001/REC-SVG-20010904/DTD/svg10.dtd">
<svg version="1.0" xmlns="http://www.w3.org/2000/svg"
 width="468.000000pt" height="468.000000pt" viewBox="0 0 468.000000 468.000000"
 preserveAspectRatio="xMidYMid meet">

<g transform="translate(0.000000,468.000000) scale(0.100000,-0.100000)"
fill="#00000010" stroke="none">
<path d="M2170 4674 c-155 -17 -230 -29 -330 -50 -264 -56 -556 -180 -785
-331 -147 -97 -221 -157 -348 -282 -378 -370 -608 -828 -688 -1376 -18 -118
-18 -472 0 -590 55 -372 180 -708 371 -994 101 -150 155 -218 279 -344 127
-130 224 -211 377 -313 296 -197 636 -325 1004 -375 122 -17 458 -17 580 0
538 74 1012 310 1381 688 120 122 182 199 278 343 192 287 317 622 372 995 18
118 18 472 0 590 -55 372 -180 708 -371 994 -101 150 -155 218 -279 344 -362
370 -813 600 -1338 682 -94 15 -430 28 -503 19z m452 -200 c865 -111 1586
-750 1803 -1599 31 -122 65 -335 65 -411 l0 -34 -669 0 -669 0 -17 78 c-85
382 -406 642 -795 642 -389 0 -710 -260 -795 -642 l-17 -78 -669 0 -669 0 0
34 c0 76 34 289 65 411 216 845 934 1484 1795 1599 146 19 421 20 572 0z
m-112 -1530 c205 -60 374 -230 436 -439 25 -82 25 -248 0 -330 -63 -211 -230
-378 -441 -441 -82 -25 -248 -25 -330 0 -211 63 -378 230 -441 441 -25 82 -25
248 0 330 69 232 268 413 497 454 71 13 210 6 279 -15z m-965 -771 c57 -257
226 -468 461 -574 202 -92 466 -92 668 0 235 106 404 317 461 574 l17 77 669
0 669 0 0 -34 c0 -76 -34 -289 -65 -411 -217 -849 -937 -1486 -1808 -1600
-151 -19 -403 -19 -554 0 -871 114 -1591 751 -1808 1600 -31 122 -65 335 -65
411 l0 34 669 0 669 0 17 -77z"/>
<path d="M2270 2749 c-172 -28 -311 -171 -339 -346 -43 -273 198 -515 472
-472 328 51 466 451 238 692 -97 103 -232 149 -371 126z m196 -133 c112 -52
174 -151 174 -276 0 -176 -124 -300 -300 -300 -176 0 -300 124 -300 300 0 176
124 300 300 300 58 0 87 -6 126 -24z"/>
</g>
</svg>
